
<!-- Generator: visioncortex VTracer 0.6.4 -->
<svg version="1.1" xmlns="http://www.w3.org/2000/svg" viewBox="0 0 512 512" preserveAspectRatio="xMidYMid meet">
<path d="M0 0 C0.994 0.267 1.988 0.534 3.012 0.809 C27.922 8.292 49.455 25.307 62.15 48.062 C71.535 65.916 75.204 83.891 75 104 C76.557 103.969 76.557 103.969 78.146 103.937 C82.041 103.863 85.936 103.818 89.832 103.78 C91.509 103.76 93.187 103.733 94.865 103.698 C109.227 103.407 119.68 105.046 130.625 115.25 C137.154 121.981 140.009 130.602 140.717 139.837 C140.77 140.505 140.823 141.174 140.878 141.862 C141.055 144.108 141.22 146.353 141.386 148.599 C141.512 150.236 141.638 151.873 141.765 153.51 C142.114 158.041 142.452 162.573 142.786 167.105 C143.002 170.029 143.22 172.953 143.438 175.876 C144.592 191.386 145.713 206.898 146.828 222.41 C146.915 223.62 147.002 224.83 147.092 226.077 C147.915 237.527 148.738 248.976 149.557 260.426 C150.595 274.94 151.639 289.454 152.692 303.967 C153.439 314.259 154.178 324.551 154.912 334.843 C155.348 340.96 155.787 347.077 156.234 353.193 C156.653 358.921 157.063 364.65 157.466 370.379 C157.614 372.472 157.766 374.565 157.922 376.658 C160.377 409.818 160.377 409.818 149.875 422.25 C142.172 430.308 133.521 434.996 122.328 435.257 C120.04 435.271 117.752 435.273 115.463 435.267 C113.567 435.274 113.567 435.274 111.633 435.281 C108.135 435.293 104.638 435.293 101.14 435.291 C97.364 435.29 93.587 435.301 89.811 435.311 C82.416 435.327 75.021 435.333 67.626 435.334 C61.613 435.335 55.601 435.339 49.588 435.346 C32.53 435.363 15.473 435.372 -1.585 435.371 C-2.504 435.371 -3.423 435.371 -4.37 435.371 C-5.29 435.371 -6.211 435.37 -7.159 435.37 C-22.069 435.37 -36.98 435.389 -51.89 435.417 C-67.21 435.446 -82.53 435.459 -97.85 435.458 C-106.446 435.457 -115.043 435.462 -123.64 435.484 C-130.96 435.502 -138.28 435.507 -145.601 435.493 C-149.333 435.487 -153.065 435.486 -156.797 435.504 C-160.85 435.522 -164.902 435.51 -168.956 435.494 C-170.125 435.505 -171.294 435.515 -172.499 435.526 C-184.807 435.422 -194.038 431.619 -202.906 423.188 C-211.36 414.304 -213.096 404.211 -212.971 392.254 C-212.843 389.508 -212.659 386.773 -212.45 384.033 C-212.344 382.48 -212.344 382.48 -212.234 380.897 C-211.996 377.465 -211.745 374.034 -211.493 370.604 C-211.318 368.129 -211.144 365.654 -210.971 363.179 C-210.549 357.176 -210.118 351.174 -209.683 345.172 C-209.176 338.17 -208.679 331.168 -208.182 324.165 C-207.294 311.663 -206.397 299.162 -205.495 286.661 C-204.621 274.554 -203.755 262.447 -202.896 250.339 C-201.959 237.128 -201.019 223.917 -200.071 210.706 C-200.021 210.007 -199.971 209.307 -199.919 208.586 C-199.819 207.18 -199.718 205.775 -199.617 204.37 C-199.268 199.499 -198.921 194.628 -198.576 189.757 C-198.109 183.19 -197.637 176.623 -197.16 170.057 C-196.986 167.653 -196.814 165.249 -196.645 162.845 C-196.412 159.552 -196.172 156.26 -195.931 152.967 C-195.866 152.026 -195.801 151.085 -195.734 150.115 C-194.639 135.504 -192.481 122.083 -181.219 111.688 C-173.495 105.813 -166.272 103.838 -156.734 103.902 C-155.941 103.904 -155.148 103.905 -154.33 103.907 C-151.803 103.912 -149.277 103.925 -146.75 103.938 C-145.034 103.943 -143.318 103.947 -141.602 103.951 C-137.401 103.962 -133.201 103.979 -129 104 C-129.013 102.801 -129.026 101.601 -129.04 100.366 C-129.05 98.757 -129.06 97.148 -129.07 95.539 C-129.084 94.36 -129.084 94.36 -129.099 93.156 C-129.213 68.362 -119.181 45.445 -101.902 27.867 C-100.937 26.909 -99.97 25.953 -99 25 C-98.238 24.239 -97.476 23.479 -96.691 22.695 C-71.825 -0.757 -32.546 -9.091 0 0 Z M-80 54 C-91.956 69.008 -96 84.992 -96 104 C-50.46 104 -4.92 104 42 104 C42 82.739 36.333 64.733 21.562 49.125 C6.787 35.432 -11.471 28.991 -31.445 29.66 C-50.495 30.794 -67.52 39.644 -80 54 Z " fill="#000000" transform="translate(283,40)"/>
</svg>