
<!-- Generator: visioncortex VTracer 0.6.4 -->
<svg version="1.1" xmlns="http://www.w3.org/2000/svg" viewBox="0 0 512 512" preserveAspectRatio="xMidYMid meet">
<path d="M0 0 C17.99 15.978 32.082 39.458 34.188 63.812 C34.384 69.815 34.286 75.81 34.188 81.812 C35.691 81.781 35.691 81.781 37.226 81.749 C40.996 81.676 44.766 81.63 48.537 81.593 C50.159 81.573 51.782 81.546 53.404 81.511 C66.805 81.23 77.851 82.362 88.188 91.812 C102.341 105.474 100.788 126.984 102.083 145.231 C102.262 147.696 102.441 150.161 102.621 152.626 C103.055 158.601 103.484 164.575 103.91 170.55 C104.257 175.41 104.606 180.269 104.955 185.129 C106.057 200.436 107.153 215.744 108.244 231.052 C109.103 243.104 109.972 255.155 110.845 267.205 C111.744 279.608 112.636 292.012 113.52 304.416 C114.016 311.368 114.515 318.32 115.021 325.272 C115.496 331.807 115.962 338.343 116.422 344.88 C116.592 347.273 116.765 349.666 116.941 352.058 C117.182 355.335 117.411 358.612 117.638 361.89 C117.709 362.827 117.781 363.763 117.855 364.729 C118.694 377.335 117.831 389.73 109.855 400.086 C102.156 408.056 93.336 412.825 82.238 413.193 C79.937 413.211 77.636 413.212 75.335 413.2 C74.061 413.206 72.787 413.211 71.474 413.216 C67.958 413.231 64.443 413.227 60.927 413.219 C57.127 413.215 53.327 413.227 49.528 413.237 C42.092 413.255 34.656 413.255 27.22 413.25 C21.173 413.246 15.127 413.248 9.081 413.253 C8.22 413.254 7.358 413.254 6.47 413.255 C4.72 413.257 2.97 413.258 1.219 413.26 C-15.184 413.273 -31.588 413.268 -47.991 413.257 C-62.986 413.247 -77.98 413.26 -92.974 413.284 C-108.385 413.308 -123.795 413.318 -139.205 413.311 C-147.851 413.307 -156.497 413.31 -165.143 413.327 C-172.504 413.342 -179.864 413.342 -187.225 413.325 C-190.977 413.317 -194.729 413.314 -198.481 413.33 C-202.556 413.346 -206.631 413.331 -210.706 413.314 C-211.881 413.323 -213.057 413.333 -214.269 413.343 C-224.724 413.25 -233.613 410.706 -241.738 403.938 C-251.187 394.258 -253.91 383.247 -253.787 370.067 C-253.655 367.337 -253.471 364.616 -253.263 361.89 C-253.192 360.86 -253.12 359.83 -253.047 358.768 C-252.809 355.353 -252.557 351.938 -252.305 348.524 C-252.131 346.06 -251.957 343.597 -251.784 341.133 C-251.361 335.158 -250.931 329.184 -250.496 323.21 C-249.989 316.239 -249.491 309.268 -248.994 302.296 C-248.106 289.849 -247.209 277.402 -246.307 264.955 C-245.434 252.904 -244.568 240.852 -243.709 228.8 C-242.621 213.544 -241.528 198.289 -240.43 183.034 C-240.081 178.186 -239.734 173.338 -239.388 168.49 C-238.921 161.952 -238.449 155.414 -237.972 148.877 C-237.799 146.484 -237.627 144.092 -237.457 141.699 C-234.561 100.95 -234.561 100.95 -222.941 90.344 C-214.551 84.309 -206.734 81.646 -196.547 81.715 C-195.753 81.716 -194.96 81.718 -194.143 81.719 C-191.616 81.725 -189.089 81.737 -186.562 81.75 C-184.846 81.755 -183.13 81.76 -181.414 81.764 C-177.214 81.775 -173.013 81.792 -168.812 81.812 C-168.844 80.946 -168.844 80.946 -168.876 80.063 C-169.759 51.837 -162.698 29.69 -144.062 8.125 C-106.448 -31.811 -41.742 -35.536 0 0 Z M-117.812 30.812 C-118.479 31.447 -119.145 32.081 -119.832 32.734 C-132.881 46.049 -135.812 63.982 -135.812 81.812 C-90.602 81.812 -45.392 81.812 1.188 81.812 C1.188 61.743 -2.61 45.332 -16.751 30.769 C-18.091 29.436 -19.451 28.124 -20.812 26.812 C-21.469 26.137 -22.125 25.462 -22.801 24.766 C-35.075 12.885 -53.092 8.142 -69.753 8.342 C-88.904 9.07 -104.642 17.346 -117.812 30.812 Z " fill="#000033" transform="translate(323.8125,61.1875)"/>
<path d="M0 0 C18.978 16.856 32.786 41.282 34.382 66.946 C34.467 70.408 34.492 73.864 34.494 77.327 C34.502 78.632 34.511 79.938 34.519 81.283 C34.541 84.83 34.55 88.377 34.555 91.925 C34.559 94.146 34.565 96.368 34.572 98.589 C34.596 106.353 34.609 114.117 34.613 121.881 C34.617 129.098 34.647 136.315 34.688 143.532 C34.723 149.751 34.739 155.969 34.739 162.188 C34.74 165.892 34.749 169.597 34.777 173.301 C34.808 177.43 34.799 181.558 34.787 185.686 C34.809 187.511 34.809 187.511 34.832 189.372 C34.77 196.498 33.901 201.322 29.188 206.812 C25.672 210.212 22.464 210.543 17.719 210.871 C13.265 210.768 9.887 209.472 6.684 206.344 C3.377 202.501 2.066 200.169 2.036 195.193 C2.028 194.219 2.019 193.245 2.011 192.242 C2.007 191.169 2.002 190.097 1.998 188.991 C1.986 187.301 1.986 187.301 1.973 185.576 C1.955 183.119 1.94 180.663 1.927 178.206 C1.906 174.308 1.879 170.41 1.85 166.512 C1.795 158.92 1.747 151.328 1.701 143.736 C1.637 133.462 1.571 123.189 1.496 112.915 C1.469 109.094 1.448 105.273 1.428 101.452 C1.255 74.732 1.058 49.373 -19.094 29.363 C-33.324 16.012 -50.2 9.105 -69.753 9.342 C-88.783 10.063 -104.827 18.241 -117.812 31.812 C-118.564 32.594 -119.316 33.375 -120.09 34.18 C-137.529 54.063 -135.945 80.319 -135.981 105.068 C-135.99 109.614 -136.01 114.161 -136.032 118.707 C-136.035 119.371 -136.038 120.035 -136.041 120.72 C-136.045 121.388 -136.048 122.057 -136.051 122.746 C-136.093 131.753 -136.126 140.761 -136.138 149.769 C-136.148 156.536 -136.178 163.303 -136.22 170.07 C-136.232 172.641 -136.237 175.212 -136.235 177.783 C-136.233 181.368 -136.255 184.953 -136.282 188.537 C-136.273 190.125 -136.273 190.125 -136.262 191.744 C-136.339 197.762 -136.817 201.222 -140.812 205.812 C-143.684 208.469 -145.89 210.364 -149.812 210.812 C-151.669 211.029 -151.669 211.029 -153.562 211.25 C-158.015 211.192 -160.596 209.36 -164.051 206.711 C-169.839 200.474 -169.245 193.675 -169.217 185.641 C-169.222 184.299 -169.229 182.956 -169.237 181.613 C-169.255 177.974 -169.254 174.335 -169.248 170.696 C-169.245 167.645 -169.251 164.594 -169.257 161.544 C-169.271 154.331 -169.27 147.119 -169.259 139.906 C-169.247 132.506 -169.261 125.106 -169.288 117.706 C-169.31 111.325 -169.317 104.944 -169.311 98.564 C-169.308 94.765 -169.31 90.967 -169.327 87.169 C-169.453 56.803 -169.453 56.803 -164.812 42.812 C-164.4 41.548 -164.4 41.548 -163.979 40.257 C-155.43 16.479 -136.419 -3.118 -113.919 -14.241 C-76.103 -31.238 -31.955 -27.205 0 0 Z " fill="#FEA422" transform="translate(323.8125,61.1875)"/>
</svg>