<svg width="22" height="21" viewBox="0 0 22 21" fill="none" xmlns="http://www.w3.org/2000/svg">
    <rect x="1.50208" y="5.50049" width="17" height="13" rx="1.5" stroke="#124A89"/>
    <path d="M18.4928 12.01C20.4277 12.01 21.9976 13.5457 21.9977 15.4397C21.9977 17.5836 19.8788 18.6365 18.8678 20.2424C18.6528 20.5854 18.3478 20.5854 18.1178 20.2424C17.0757 18.6977 14.9889 17.5384 14.9889 15.4406C14.989 13.5459 16.5581 12.0102 18.4928 12.01ZM15.7955 0.503139C16.2026 0.477215 17.0235 0.637396 17.5953 1.16329C17.987 1.52322 18.0412 2.08867 18.1012 2.61544C18.2062 3.52444 18.5275 4.40222 19.2955 5.33322C20.4092 6.68308 20.0084 7.91112 19.3834 8.46408C18.7584 9.01708 17.5131 9.87963 16.0641 9.31564C14.6673 8.77064 14.1937 7.97732 14.0377 6.6174C13.7707 7.7114 12.6361 8.95397 11.3141 9.30197C9.99399 9.64791 7.03085 9.64724 5.9889 6.6174C5.97624 7.0124 5.88576 7.40158 5.72132 7.76095C5.5569 8.12028 5.32244 8.44335 5.03187 8.71115C4.74124 8.97897 4.39955 9.18594 4.02796 9.32052C3.65645 9.45505 3.26147 9.51394 2.86683 9.49435C2.20469 9.43622 0.936971 9.0966 0.439096 8.22482C-0.160793 7.17499 -0.240786 6.7248 0.824838 5.20822C1.88955 3.69163 1.96542 2.88427 1.96546 2.33029C1.96546 1.71232 2.41126 0.444637 4.14906 0.529506L15.7955 0.503139Z" fill="#124A89"/>
</svg>
