<svg width="24" height="25" viewBox="0 0 24 25" fill="none" xmlns="http://www.w3.org/2000/svg">
    <path d="M2.977 11.0149V15.5089C2.977 18.3339 2.977 19.7459 3.857 20.6239C4.736 21.5019 6.152 21.5019 8.983 21.5019H12.988M6.981 17.5069H10.986M18.494 17.5069H18.504M18.494 14.0099C20.429 14.0099 21.998 15.5459 21.998 17.4399C21.998 19.5839 19.88 20.6369 18.869 22.2429C18.654 22.5859 18.349 22.5859 18.119 22.2429C17.077 20.6979 14.99 19.5389 14.99 17.4409C14.99 15.5459 16.559 14.0099 18.494 14.0099ZM17.796 2.50291L6.15 2.52991C4.412 2.44491 3.966 3.71191 3.966 4.32991C3.966 4.88391 3.891 5.69091 2.826 7.20791C1.76 8.72491 1.84 9.17491 2.44 10.2249C2.938 11.0969 4.206 11.4369 4.868 11.4949C5.26272 11.5145 5.65739 11.4553 6.02898 11.3207C6.40057 11.1861 6.74162 10.9789 7.03225 10.711C7.32288 10.4432 7.55725 10.1202 7.72168 9.76082C7.88612 9.40145 7.97733 9.01292 7.99 8.61791C9.032 11.6479 11.995 11.6479 13.315 11.3019C14.637 10.9539 15.771 9.71191 16.038 8.61791C16.194 9.97791 16.668 10.7709 18.065 11.3159C19.514 11.8799 20.759 11.0169 21.384 10.4639C22.009 9.91091 22.41 8.68291 21.296 7.33291C20.528 6.40191 20.207 5.52491 20.102 4.61591C20.042 4.08891 19.988 3.52291 19.596 3.16291C19.024 2.63691 18.203 2.47691 17.796 2.50291Z" stroke="white" stroke-width="1.5" stroke-linecap="round" stroke-linejoin="round"/>
</svg>
