<svg width="28" height="27" viewBox="0 0 28 27" fill="none" xmlns="http://www.w3.org/2000/svg">
    <path fill-rule="evenodd" clip-rule="evenodd" d="M3.335 8.80088C2.75 9.86625 2.75 11.1544 2.75 13.7284V15.4406C2.75 19.8281 2.75 22.023 4.0685 23.3865C5.387 24.75 7.50763 24.75 11.75 24.75H16.25C20.4924 24.75 22.6141 24.75 23.9315 23.3865C25.2489 22.023 25.25 19.8293 25.25 15.4406V13.7295C25.25 11.1544 25.25 9.86738 24.665 8.80088C24.0823 7.73325 23.0146 7.07175 20.8805 5.7465L18.6305 4.35038C16.3749 2.94975 15.2465 2.25 14 2.25C12.7535 2.25 11.6263 2.94975 9.3695 4.35038L7.1195 5.7465C4.98538 7.07175 3.91888 7.73325 3.335 8.80088ZM13.1563 20.25C13.1563 20.4738 13.2451 20.6884 13.4034 20.8466C13.5616 21.0049 13.7762 21.0938 14 21.0938C14.2238 21.0938 14.4384 21.0049 14.5966 20.8466C14.7549 20.6884 14.8438 20.4738 14.8438 20.25V16.875C14.8438 16.6512 14.7549 16.4366 14.5966 16.2784C14.4384 16.1201 14.2238 16.0313 14 16.0313C13.7762 16.0313 13.5616 16.1201 13.4034 16.2784C13.2451 16.4366 13.1563 16.6512 13.1563 16.875V20.25Z" fill="#124A89"/>
</svg>
