<svg width="27" height="27" viewBox="0 0 27 27" fill="none" xmlns="http://www.w3.org/2000/svg">
    <path fill-rule="evenodd" clip-rule="evenodd" d="M14.6251 3.375C14.6251 3.07663 14.5065 2.79048 14.2956 2.5795C14.0846 2.36853 13.7984 2.25 13.5001 2.25C13.2017 2.25 12.9155 2.36853 12.7046 2.5795C12.4936 2.79048 12.3751 3.07663 12.3751 3.375V4.21875H11.7484C10.5425 4.21867 9.3818 4.67819 8.50272 5.50377C7.62364 6.32934 7.09223 7.4589 7.01668 8.6625L6.76805 12.6383C6.67194 14.1539 6.16308 15.6143 5.29656 16.8615C5.11727 17.1192 5.00772 17.4189 4.97857 17.7315C4.94941 18.0441 5.00164 18.3588 5.13018 18.6453C5.25872 18.9317 5.45919 19.1799 5.71209 19.3659C5.965 19.5519 6.26173 19.6693 6.57343 19.7066L10.4063 20.1656V21.375C10.4063 22.1955 10.7323 22.9824 11.3124 23.5626C11.8926 24.1428 12.6795 24.4688 13.5001 24.4688C14.3206 24.4688 15.1075 24.1428 15.6877 23.5626C16.2679 22.9824 16.5938 22.1955 16.5938 21.375V20.1656L20.4267 19.7055C20.7382 19.6681 21.0347 19.5507 21.2875 19.3647C21.5402 19.1788 21.7406 18.9307 21.8691 18.6445C21.9976 18.3582 22.0499 18.0436 22.0209 17.7312C21.9919 17.4188 21.8826 17.1192 21.7036 16.8615C20.837 15.6143 20.3282 14.1539 20.2321 12.6383L19.9834 8.66363C19.9082 7.45983 19.3769 6.32999 18.4978 5.50418C17.6186 4.67837 16.4578 4.21869 15.2517 4.21875H14.6251V3.375ZM12.0938 21.375C12.0938 21.748 12.242 22.1056 12.5057 22.3694C12.7694 22.6331 13.1271 22.7812 13.5001 22.7812C13.873 22.7812 14.2307 22.6331 14.4944 22.3694C14.7581 22.1056 14.9063 21.748 14.9063 21.375V20.5312H12.0938V21.375Z" fill="#124A89"/>
</svg>
