<svg width="22" height="22" viewBox="0 0 22 22" fill="none" xmlns="http://www.w3.org/2000/svg">
    <path d="M19.4213 10.9999H8.35898M4.45427 10.9999H2.85693M4.45427 10.9999C4.45427 10.4823 4.65992 9.98579 5.02597 9.61973C5.39203 9.25368 5.8885 9.04803 6.40618 9.04803C6.92386 9.04803 7.42033 9.25368 7.78639 9.61973C8.15244 9.98579 8.35809 10.4823 8.35809 10.9999C8.35809 11.5176 8.15244 12.0141 7.78639 12.3801C7.42033 12.7462 6.92386 12.9518 6.40618 12.9518C5.8885 12.9518 5.39203 12.7462 5.02597 12.3801C4.65992 12.0141 4.45427 11.5176 4.45427 10.9999ZM19.4213 16.9157H14.2747M14.2747 16.9157C14.2747 17.4334 14.0686 17.9305 13.7024 18.2966C13.3363 18.6628 12.8397 18.8685 12.3219 18.8685C11.8042 18.8685 11.3077 18.6619 10.9417 18.2959C10.5756 17.9298 10.37 17.4333 10.37 16.9157M14.2747 16.9157C14.2747 16.3979 14.0686 15.9017 13.7024 15.5356C13.3363 15.1694 12.8397 14.9637 12.3219 14.9637C11.8042 14.9637 11.3077 15.1694 10.9417 15.5354C10.5756 15.9015 10.37 16.398 10.37 16.9157M10.37 16.9157H2.85693M19.4213 5.08423H16.6412M12.7364 5.08423H2.85693M12.7364 5.08423C12.7364 4.56655 12.9421 4.07008 13.3081 3.70402C13.6742 3.33797 14.1707 3.13232 14.6884 3.13232C14.9447 3.13232 15.1985 3.18281 15.4353 3.2809C15.6721 3.379 15.8873 3.52277 16.0686 3.70402C16.2498 3.88528 16.3936 4.10045 16.4917 4.33727C16.5898 4.57408 16.6403 4.8279 16.6403 5.08423C16.6403 5.34056 16.5898 5.59438 16.4917 5.83119C16.3936 6.06801 16.2498 6.28319 16.0686 6.46444C15.8873 6.64569 15.6721 6.78947 15.4353 6.88756C15.1985 6.98565 14.9447 7.03614 14.6884 7.03614C14.1707 7.03614 13.6742 6.83049 13.3081 6.46444C12.9421 6.09838 12.7364 5.60191 12.7364 5.08423Z" stroke="white" stroke-width="1.5" stroke-miterlimit="10" stroke-linecap="round"/>
</svg>
