<svg width="28" height="27" viewBox="0 0 28 27" fill="none" xmlns="http://www.w3.org/2000/svg">
    <path d="M5 20.25C5 19.0565 5.47411 17.9119 6.31802 17.068C7.16193 16.2241 8.30653 15.75 9.5 15.75H18.5C19.6935 15.75 20.8381 16.2241 21.682 17.068C22.5259 17.9119 23 19.0565 23 20.25C23 20.8467 22.7629 21.419 22.341 21.841C21.919 22.2629 21.3467 22.5 20.75 22.5H7.25C6.65326 22.5 6.08097 22.2629 5.65901 21.841C5.23705 21.419 5 20.8467 5 20.25Z" stroke="white" stroke-width="2" stroke-linejoin="round"/>
    <path d="M14 11.25C15.864 11.25 17.375 9.73896 17.375 7.875C17.375 6.01104 15.864 4.5 14 4.5C12.136 4.5 10.625 6.01104 10.625 7.875C10.625 9.73896 12.136 11.25 14 11.25Z" stroke="white" stroke-width="2"/>
</svg>
